<svg xmlns="http://www.w3.org/2000/svg" width="100" height="100" viewBox="0 0 100 100">
  <symbol id="burger" viewBox="0 0 24 24" fill="none" stroke="currentColor" stroke-width="2" stroke-linecap="round" stroke-linejoin="round">
    <path d="M7 20h10" />
    <path d="M10 16c-4.4 0-8-3.6-8-8 0-2.2 1.8-4 4-4h8c2.2 0 4 1.8 4 4 0 4.4-3.6 8-8 8z" />
    <path d="M2 12h20" />
    <path d="M2 16h20" />
  </symbol>
  <symbol id="pizza" viewBox="0 0 24 24" fill="none" stroke="currentColor" stroke-width="2" stroke-linecap="round" stroke-linejoin="round">
    <path d="M15 11h.01" />
    <path d="M11 15h.01" />
    <path d="M16 16h.01" />
    <path d="m2 16 20 6-6-20A20 20 0 0 0 2 16Z" />
    <path d="M7 14h.01" />
  </symbol>
  <symbol id="donut" viewBox="0 0 24 24" fill="none" stroke="currentColor" stroke-width="2" stroke-linecap="round" stroke-linejoin="round">
    <path d="M12 12h.01" />
    <circle cx="12" cy="12" r="9" />
    <circle cx="12" cy="12" r="3" />
  </symbol>
</svg>
